<?xml version="1.0" encoding="UTF-8"?>
<svg width="88px" height="65px" viewBox="0 0 88 65" version="1.1" xmlns="http://www.w3.org/2000/svg" xmlns:xlink="http://www.w3.org/1999/xlink">
    <!-- Generator: Sketch 42 (36781) - http://www.bohemiancoding.com/sketch -->
    <title>icon</title>
    <desc>Created with Sketch.</desc>
    <defs></defs>
    <g id="Page-1" stroke="none" stroke-width="1" fill="none" fill-rule="evenodd">
        <g id="icon" fill-rule="nonzero" fill="#000000">
            <path d="M49.956,47.261 C53.167,48.084 57.187,48.983 60.63,47.261 C64.073,45.54 71.583,41.5 77.167,43.917 C78.475,44.483 79.979,45.391 81.118,48.026 C82.583,51.417 87.933,50.528 87.417,52.25 C86.9,53.971 81.667,53.084 78.535,52.081 C73.167,53.834 65.313,51.868 63.385,52.426 C59.667,53.5 48.554,60.123 46.417,60.834 C25.9,67.654 21.064,61.472 19.31,61.378 C16.916,61.25 -1.632,56.319 0.25,52.334 C1.667,49.334 14.375,56.875 22.625,51.375 C21.875,47.708 15.625,33.125 14.875,28.625 C13.658,21.322 16.102,13.443 16.625,11.5 C18.625,4.067 30.656,-4.623 31,3.125 C31.345,10.873 34.205,16.422 33,13.667 C32.897,13.432 34.911,17.599 32,21.334 C25.375,29.834 26.542,48.294 26.542,48.294 C29.579,34.527 29.236,34.534 30.75,30.125 C32.167,26 35.776,20.764 36.125,20.25 C37.833,17.736 41.25,14.375 42.625,12.5 C43.081,11.878 44.797,9.321 46.5,11.5 C48.502,14.061 49.267,5.081 50.816,5.425 C52.365,5.769 56.875,17.625 52.333,32.417 C50.096,39.704 46.333,44.5 49.956,47.261 Z" id="Shape"></path>
        </g>
    </g>
</svg>